<svg width="32" height="32" viewBox="0 0 32 32" fill="none" xmlns="http://www.w3.org/2000/svg">
    <defs>
        <linearGradient id="magicGrad" x1="0%" y1="0%" x2="100%" y2="100%">
            <stop offset="0%" style="stop-color:#ff9a9e;stop-opacity:1" />
            <stop offset="50%" style="stop-color:#fecfef;stop-opacity:1" />
            <stop offset="100%" style="stop-color:#fecfef;stop-opacity:1" />
        </linearGradient>
        <radialGradient id="starGrad" cx="50%" cy="50%" r="50%">
            <stop offset="0%" style="stop-color:#ffeb3b;stop-opacity:1" />
            <stop offset="100%" style="stop-color:#ff9800;stop-opacity:1" />
        </radialGradient>
    </defs>
    <circle cx="16" cy="16" r="15" fill="#ff9a9e" opacity="0.3"/>
    <circle cx="16" cy="16" r="13" fill="url(#magicGrad)" stroke="#ffffff" stroke-width="2"/>
    <g fill="url(#starGrad)" stroke="#ffffff" stroke-width="0.5">
        <path d="M7 9 L8 11 L10 9 L8 7 Z"/>
        <path d="M25 11 L26.5 13.5 L29 11 L26.5 8.5 Z"/>
        <path d="M6 22 L7 24 L9 22 L7 20 Z"/>
        <path d="M25 24 L26 26 L28 24 L26 22 Z"/>
    </g>
    <g fill="white" stroke="#ff69b4" stroke-width="1">
        <path d="M16 8 L11 13 L13.5 13 L13.5 19 L18.5 19 L18.5 13 L21 13 Z"/>
    </g>
    <g fill="white" opacity="0.9">
        <circle cx="12" cy="12" r="0.5"/>
        <circle cx="20" cy="14" r="0.7"/>
        <circle cx="14" cy="20" r="0.4"/>
        <circle cx="18" cy="22" r="0.6"/>
    </g>
    <rect x="10" y="22" width="12" height="2" rx="1" fill="white"/>
    <path d="M16 25 C16 25 13 23.5 13 22 C13 21.5 13.5 21 14 21 C14.5 21 15 21.5 15 22 C15 21.5 15.5 21 16 21 C16.5 21 17 21.5 17 22 C17 21.5 17.5 21 18 21 C18.5 21 19 21.5 19 22 C19 23.5 16 25 16 25 Z" fill="#ff69b4" opacity="0.7"/>
</svg>